<mxfile host="65bd71144e">
    <diagram id="vS6kAb8bpm7WFyKPWlzI" name="Step_1">
        <mxGraphModel dx="914" dy="575" grid="1" gridSize="10" guides="1" tooltips="1" connect="1" arrows="1" fold="1" page="1" pageScale="1" pageWidth="827" pageHeight="1169" math="0" shadow="0">
            <root>
                <mxCell id="0"/>
                <mxCell id="1" parent="0"/>
                <mxCell id="2" value="" style="shape=actor;whiteSpace=wrap;html=1;" vertex="1" parent="1">
                    <mxGeometry x="360" y="300" width="70" height="100" as="geometry"/>
                </mxCell>
                <mxCell id="3" value="Product" style="ellipse;shape=cloud;whiteSpace=wrap;html=1;" vertex="1" parent="1">
                    <mxGeometry x="335" y="160" width="120" height="80" as="geometry"/>
                </mxCell>
                <mxCell id="4" value="Customer" style="ellipse;shape=cloud;whiteSpace=wrap;html=1;" vertex="1" parent="1">
                    <mxGeometry x="530" y="250" width="120" height="80" as="geometry"/>
                </mxCell>
                <mxCell id="5" value="Companie" style="ellipse;shape=cloud;whiteSpace=wrap;html=1;" vertex="1" parent="1">
                    <mxGeometry x="100" y="230" width="120" height="80" as="geometry"/>
                </mxCell>
            </root>
        </mxGraphModel>
    </diagram>
    <diagram id="sbZ0zymOCdk-1Gbjaiqz" name="Step_2_ERM">
        <mxGraphModel dx="914" dy="575" grid="1" gridSize="10" guides="1" tooltips="1" connect="1" arrows="1" fold="1" page="1" pageScale="1" pageWidth="827" pageHeight="1169" math="0" shadow="0">
            <root>
                <mxCell id="phPYrKJ0skTunb7a8-91-0"/>
                <mxCell id="phPYrKJ0skTunb7a8-91-1" parent="phPYrKJ0skTunb7a8-91-0"/>
                <mxCell id="phPYrKJ0skTunb7a8-91-2" style="edgeStyle=none;html=1;exitX=1;exitY=0.75;exitDx=0;exitDy=0;entryX=0;entryY=0.5;entryDx=0;entryDy=0;startArrow=ERone;startFill=0;endArrow=ERone;endFill=0;" edge="1" parent="phPYrKJ0skTunb7a8-91-1" source="phPYrKJ0skTunb7a8-91-4" target="phPYrKJ0skTunb7a8-91-11">
                    <mxGeometry relative="1" as="geometry"/>
                </mxCell>
                <mxCell id="phPYrKJ0skTunb7a8-91-3" style="edgeStyle=none;html=1;exitX=0.25;exitY=1;exitDx=0;exitDy=0;entryX=0.5;entryY=0;entryDx=0;entryDy=0;startArrow=ERmany;startFill=0;endArrow=ERmany;endFill=0;" edge="1" parent="phPYrKJ0skTunb7a8-91-1" source="phPYrKJ0skTunb7a8-91-4" target="phPYrKJ0skTunb7a8-91-10">
                    <mxGeometry relative="1" as="geometry"/>
                </mxCell>
                <mxCell id="phPYrKJ0skTunb7a8-91-4" value="Customer" style="rounded=0;whiteSpace=wrap;html=1;" vertex="1" parent="phPYrKJ0skTunb7a8-91-1">
                    <mxGeometry x="360" y="670" width="120" height="60" as="geometry"/>
                </mxCell>
                <mxCell id="phPYrKJ0skTunb7a8-91-5" value="Product" style="rounded=0;whiteSpace=wrap;html=1;" vertex="1" parent="phPYrKJ0skTunb7a8-91-1">
                    <mxGeometry x="360" y="300" width="120" height="60" as="geometry"/>
                </mxCell>
                <mxCell id="phPYrKJ0skTunb7a8-91-6" style="edgeStyle=none;html=1;exitX=0.5;exitY=1;exitDx=0;exitDy=0;entryX=0.5;entryY=0;entryDx=0;entryDy=0;endArrow=ERmany;endFill=0;startArrow=ERone;startFill=0;" edge="1" parent="phPYrKJ0skTunb7a8-91-1" source="phPYrKJ0skTunb7a8-91-7" target="phPYrKJ0skTunb7a8-91-5">
                    <mxGeometry relative="1" as="geometry"/>
                </mxCell>
                <mxCell id="phPYrKJ0skTunb7a8-91-7" value="Company" style="rounded=0;whiteSpace=wrap;html=1;" vertex="1" parent="phPYrKJ0skTunb7a8-91-1">
                    <mxGeometry x="360" y="120" width="120" height="60" as="geometry"/>
                </mxCell>
                <mxCell id="phPYrKJ0skTunb7a8-91-8" style="edgeStyle=none;html=1;exitX=1;exitY=0.5;exitDx=0;exitDy=0;entryX=0;entryY=0.5;entryDx=0;entryDy=0;startArrow=ERmany;startFill=0;endArrow=ERmany;endFill=0;" edge="1" parent="phPYrKJ0skTunb7a8-91-1" source="phPYrKJ0skTunb7a8-91-9" target="phPYrKJ0skTunb7a8-91-4">
                    <mxGeometry relative="1" as="geometry"/>
                </mxCell>
                <mxCell id="phPYrKJ0skTunb7a8-91-9" value="first_name" style="ellipse;whiteSpace=wrap;html=1;" vertex="1" parent="phPYrKJ0skTunb7a8-91-1">
                    <mxGeometry x="180" y="630" width="120" height="80" as="geometry"/>
                </mxCell>
                <mxCell id="phPYrKJ0skTunb7a8-91-10" value="Address" style="ellipse;whiteSpace=wrap;html=1;" vertex="1" parent="phPYrKJ0skTunb7a8-91-1">
                    <mxGeometry x="320" y="800" width="120" height="80" as="geometry"/>
                </mxCell>
                <mxCell id="phPYrKJ0skTunb7a8-91-11" value="Username" style="ellipse;whiteSpace=wrap;html=1;" vertex="1" parent="phPYrKJ0skTunb7a8-91-1">
                    <mxGeometry x="540" y="710" width="120" height="80" as="geometry"/>
                </mxCell>
                <mxCell id="phPYrKJ0skTunb7a8-91-12" value="account_id" style="ellipse;whiteSpace=wrap;html=1;" vertex="1" parent="phPYrKJ0skTunb7a8-91-1">
                    <mxGeometry x="470" y="800" width="120" height="80" as="geometry"/>
                </mxCell>
                <mxCell id="phPYrKJ0skTunb7a8-91-13" value="E-mail" style="ellipse;whiteSpace=wrap;html=1;" vertex="1" parent="phPYrKJ0skTunb7a8-91-1">
                    <mxGeometry x="180" y="790" width="120" height="80" as="geometry"/>
                </mxCell>
                <mxCell id="phPYrKJ0skTunb7a8-91-14" value="last_name" style="ellipse;whiteSpace=wrap;html=1;" vertex="1" parent="phPYrKJ0skTunb7a8-91-1">
                    <mxGeometry x="540" y="630" width="120" height="80" as="geometry"/>
                </mxCell>
                <mxCell id="phPYrKJ0skTunb7a8-91-15" style="edgeStyle=none;html=1;exitX=0;exitY=1;exitDx=0;exitDy=0;entryX=0.75;entryY=0;entryDx=0;entryDy=0;startArrow=ERone;startFill=0;endArrow=ERone;endFill=0;" edge="1" parent="phPYrKJ0skTunb7a8-91-1" source="phPYrKJ0skTunb7a8-91-16" target="phPYrKJ0skTunb7a8-91-7">
                    <mxGeometry relative="1" as="geometry"/>
                </mxCell>
                <mxCell id="phPYrKJ0skTunb7a8-91-16" value="Address" style="ellipse;whiteSpace=wrap;html=1;" vertex="1" parent="phPYrKJ0skTunb7a8-91-1">
                    <mxGeometry x="480" width="120" height="80" as="geometry"/>
                </mxCell>
                <mxCell id="phPYrKJ0skTunb7a8-91-17" value="E-mail" style="ellipse;whiteSpace=wrap;html=1;" vertex="1" parent="phPYrKJ0skTunb7a8-91-1">
                    <mxGeometry x="360" width="120" height="80" as="geometry"/>
                </mxCell>
                <mxCell id="phPYrKJ0skTunb7a8-91-18" style="edgeStyle=none;html=1;exitX=1;exitY=1;exitDx=0;exitDy=0;startArrow=ERone;startFill=0;endArrow=ERone;endFill=0;" edge="1" parent="phPYrKJ0skTunb7a8-91-1" source="phPYrKJ0skTunb7a8-91-19" target="phPYrKJ0skTunb7a8-91-7">
                    <mxGeometry relative="1" as="geometry"/>
                </mxCell>
                <mxCell id="phPYrKJ0skTunb7a8-91-19" value="Name" style="ellipse;whiteSpace=wrap;html=1;" vertex="1" parent="phPYrKJ0skTunb7a8-91-1">
                    <mxGeometry x="240" width="120" height="80" as="geometry"/>
                </mxCell>
                <mxCell id="phPYrKJ0skTunb7a8-91-20" style="edgeStyle=none;html=1;exitX=1;exitY=0.5;exitDx=0;exitDy=0;entryX=0;entryY=0.5;entryDx=0;entryDy=0;startArrow=ERone;startFill=0;endArrow=ERone;endFill=0;" edge="1" parent="phPYrKJ0skTunb7a8-91-1" source="phPYrKJ0skTunb7a8-91-21" target="phPYrKJ0skTunb7a8-91-7">
                    <mxGeometry relative="1" as="geometry"/>
                </mxCell>
                <mxCell id="phPYrKJ0skTunb7a8-91-21" value="ID" style="ellipse;whiteSpace=wrap;html=1;" vertex="1" parent="phPYrKJ0skTunb7a8-91-1">
                    <mxGeometry x="164" y="80" width="120" height="80" as="geometry"/>
                </mxCell>
                <mxCell id="phPYrKJ0skTunb7a8-91-22" style="edgeStyle=none;html=1;exitX=0;exitY=0.5;exitDx=0;exitDy=0;entryX=1;entryY=0.25;entryDx=0;entryDy=0;startArrow=ERone;startFill=0;endArrow=ERone;endFill=0;" edge="1" parent="phPYrKJ0skTunb7a8-91-1" source="phPYrKJ0skTunb7a8-91-23" target="phPYrKJ0skTunb7a8-91-7">
                    <mxGeometry relative="1" as="geometry"/>
                </mxCell>
                <mxCell id="phPYrKJ0skTunb7a8-91-23" value="Phone" style="ellipse;whiteSpace=wrap;html=1;" vertex="1" parent="phPYrKJ0skTunb7a8-91-1">
                    <mxGeometry x="580" y="80" width="120" height="80" as="geometry"/>
                </mxCell>
                <mxCell id="phPYrKJ0skTunb7a8-91-24" style="edgeStyle=none;html=1;exitX=1;exitY=0.5;exitDx=0;exitDy=0;entryX=-0.003;entryY=0.377;entryDx=0;entryDy=0;entryPerimeter=0;startArrow=ERone;startFill=0;endArrow=ERone;endFill=0;" edge="1" parent="phPYrKJ0skTunb7a8-91-1" source="phPYrKJ0skTunb7a8-91-25" target="phPYrKJ0skTunb7a8-91-5">
                    <mxGeometry relative="1" as="geometry"/>
                </mxCell>
                <mxCell id="phPYrKJ0skTunb7a8-91-25" value="Name" style="ellipse;whiteSpace=wrap;html=1;" vertex="1" parent="phPYrKJ0skTunb7a8-91-1">
                    <mxGeometry x="180" y="250" width="120" height="80" as="geometry"/>
                </mxCell>
                <mxCell id="phPYrKJ0skTunb7a8-91-26" style="edgeStyle=none;html=1;exitX=0;exitY=0.5;exitDx=0;exitDy=0;entryX=1;entryY=0;entryDx=0;entryDy=0;startArrow=ERone;startFill=0;endArrow=ERone;endFill=0;" edge="1" parent="phPYrKJ0skTunb7a8-91-1" source="phPYrKJ0skTunb7a8-91-27" target="phPYrKJ0skTunb7a8-91-5">
                    <mxGeometry relative="1" as="geometry"/>
                </mxCell>
                <mxCell id="phPYrKJ0skTunb7a8-91-27" value="ID" style="ellipse;whiteSpace=wrap;html=1;" vertex="1" parent="phPYrKJ0skTunb7a8-91-1">
                    <mxGeometry x="540" y="250" width="120" height="80" as="geometry"/>
                </mxCell>
                <mxCell id="phPYrKJ0skTunb7a8-91-28" style="edgeStyle=none;html=1;exitX=1;exitY=0.5;exitDx=0;exitDy=0;entryX=0;entryY=0.75;entryDx=0;entryDy=0;startArrow=ERone;startFill=0;endArrow=ERone;endFill=0;" edge="1" parent="phPYrKJ0skTunb7a8-91-1" source="phPYrKJ0skTunb7a8-91-29" target="phPYrKJ0skTunb7a8-91-5">
                    <mxGeometry relative="1" as="geometry"/>
                </mxCell>
                <mxCell id="phPYrKJ0skTunb7a8-91-29" value="Description" style="ellipse;whiteSpace=wrap;html=1;" vertex="1" parent="phPYrKJ0skTunb7a8-91-1">
                    <mxGeometry x="180" y="330" width="120" height="80" as="geometry"/>
                </mxCell>
                <mxCell id="phPYrKJ0skTunb7a8-91-30" style="edgeStyle=none;html=1;exitX=0;exitY=0.5;exitDx=0;exitDy=0;entryX=1;entryY=0.75;entryDx=0;entryDy=0;startArrow=ERone;startFill=0;endArrow=ERmany;endFill=0;" edge="1" parent="phPYrKJ0skTunb7a8-91-1" source="phPYrKJ0skTunb7a8-91-31" target="phPYrKJ0skTunb7a8-91-5">
                    <mxGeometry relative="1" as="geometry"/>
                </mxCell>
                <mxCell id="phPYrKJ0skTunb7a8-91-31" value="Set" style="ellipse;whiteSpace=wrap;html=1;" vertex="1" parent="phPYrKJ0skTunb7a8-91-1">
                    <mxGeometry x="540" y="330" width="120" height="80" as="geometry"/>
                </mxCell>
                <mxCell id="phPYrKJ0skTunb7a8-91-32" style="edgeStyle=none;html=1;exitX=1;exitY=0.5;exitDx=0;exitDy=0;entryX=0;entryY=0.5;entryDx=0;entryDy=0;startArrow=ERmany;startFill=0;endArrow=ERmany;endFill=0;" edge="1" parent="phPYrKJ0skTunb7a8-91-1" source="phPYrKJ0skTunb7a8-91-35" target="phPYrKJ0skTunb7a8-91-36">
                    <mxGeometry relative="1" as="geometry"/>
                </mxCell>
                <mxCell id="phPYrKJ0skTunb7a8-91-33" style="edgeStyle=none;html=1;exitX=0.5;exitY=0;exitDx=0;exitDy=0;entryX=0.5;entryY=1;entryDx=0;entryDy=0;startArrow=ERone;startFill=0;endArrow=ERone;endFill=0;" edge="1" parent="phPYrKJ0skTunb7a8-91-1" source="phPYrKJ0skTunb7a8-91-35" target="phPYrKJ0skTunb7a8-91-5">
                    <mxGeometry relative="1" as="geometry"/>
                </mxCell>
                <mxCell id="phPYrKJ0skTunb7a8-91-34" style="edgeStyle=none;html=1;exitX=0.5;exitY=1;exitDx=0;exitDy=0;startArrow=ERmany;startFill=0;endArrow=ERone;endFill=0;entryX=0.5;entryY=0;entryDx=0;entryDy=0;" edge="1" parent="phPYrKJ0skTunb7a8-91-1" source="phPYrKJ0skTunb7a8-91-35" target="phPYrKJ0skTunb7a8-91-4">
                    <mxGeometry relative="1" as="geometry">
                        <mxPoint x="420" y="660" as="targetPoint"/>
                    </mxGeometry>
                </mxCell>
                <mxCell id="phPYrKJ0skTunb7a8-91-35" value="transaction" style="rhombus;whiteSpace=wrap;html=1;" vertex="1" parent="phPYrKJ0skTunb7a8-91-1">
                    <mxGeometry x="380" y="500" width="80" height="80" as="geometry"/>
                </mxCell>
                <mxCell id="phPYrKJ0skTunb7a8-91-36" value="date" style="ellipse;whiteSpace=wrap;html=1;" vertex="1" parent="phPYrKJ0skTunb7a8-91-1">
                    <mxGeometry x="544" y="500" width="120" height="80" as="geometry"/>
                </mxCell>
                <mxCell id="phPYrKJ0skTunb7a8-91-37" style="edgeStyle=none;html=1;exitX=1;exitY=0.5;exitDx=0;exitDy=0;entryX=0;entryY=0.5;entryDx=0;entryDy=0;startArrow=ERone;startFill=0;endArrow=ERone;endFill=0;" edge="1" parent="phPYrKJ0skTunb7a8-91-1" source="phPYrKJ0skTunb7a8-91-38" target="phPYrKJ0skTunb7a8-91-35">
                    <mxGeometry relative="1" as="geometry"/>
                </mxCell>
                <mxCell id="phPYrKJ0skTunb7a8-91-38" value="ID" style="ellipse;whiteSpace=wrap;html=1;" vertex="1" parent="phPYrKJ0skTunb7a8-91-1">
                    <mxGeometry x="164" y="500" width="120" height="80" as="geometry"/>
                </mxCell>
                <mxCell id="phPYrKJ0skTunb7a8-91-39" style="edgeStyle=none;html=1;exitX=1;exitY=1;exitDx=0;exitDy=0;entryX=0.403;entryY=-0.008;entryDx=0;entryDy=0;startArrow=ERone;startFill=0;endArrow=ERone;endFill=0;entryPerimeter=0;" edge="1" parent="phPYrKJ0skTunb7a8-91-1" source="phPYrKJ0skTunb7a8-91-4" target="phPYrKJ0skTunb7a8-91-12">
                    <mxGeometry relative="1" as="geometry">
                        <mxPoint x="460" y="810" as="sourcePoint"/>
                        <mxPoint x="550" y="810" as="targetPoint"/>
                        <Array as="points">
                            <mxPoint x="500" y="760"/>
                        </Array>
                    </mxGeometry>
                </mxCell>
                <mxCell id="phPYrKJ0skTunb7a8-91-40" style="edgeStyle=none;html=1;exitX=1;exitY=0.5;exitDx=0;exitDy=0;entryX=0.01;entryY=0.357;entryDx=0;entryDy=0;startArrow=ERmany;startFill=0;endArrow=ERmany;endFill=0;entryPerimeter=0;" edge="1" parent="phPYrKJ0skTunb7a8-91-1" target="phPYrKJ0skTunb7a8-91-14">
                    <mxGeometry relative="1" as="geometry">
                        <mxPoint x="480" y="670" as="sourcePoint"/>
                        <mxPoint x="564" y="670" as="targetPoint"/>
                    </mxGeometry>
                </mxCell>
                <mxCell id="phPYrKJ0skTunb7a8-91-41" style="edgeStyle=none;html=1;exitX=0;exitY=1;exitDx=0;exitDy=0;entryX=1;entryY=0;entryDx=0;entryDy=0;startArrow=ERone;startFill=0;endArrow=ERone;endFill=0;" edge="1" parent="phPYrKJ0skTunb7a8-91-1" source="phPYrKJ0skTunb7a8-91-4" target="phPYrKJ0skTunb7a8-91-13">
                    <mxGeometry relative="1" as="geometry">
                        <mxPoint x="490" y="740" as="sourcePoint"/>
                        <mxPoint x="560" y="820" as="targetPoint"/>
                        <Array as="points"/>
                    </mxGeometry>
                </mxCell>
                <mxCell id="phPYrKJ0skTunb7a8-91-42" style="edgeStyle=none;html=1;exitX=0.5;exitY=1;exitDx=0;exitDy=0;startArrow=ERone;startFill=0;endArrow=ERone;endFill=0;entryX=0.5;entryY=0;entryDx=0;entryDy=0;" edge="1" parent="phPYrKJ0skTunb7a8-91-1" source="phPYrKJ0skTunb7a8-91-17" target="phPYrKJ0skTunb7a8-91-7">
                    <mxGeometry relative="1" as="geometry">
                        <mxPoint x="414" y="80" as="sourcePoint"/>
                        <mxPoint x="484" y="160" as="targetPoint"/>
                    </mxGeometry>
                </mxCell>
            </root>
        </mxGraphModel>
    </diagram>
    <diagram id="zm8VJuORPZwg7PXc4zAm" name="Step_3_UML_diagramm">
        <mxGraphModel dx="914" dy="575" grid="1" gridSize="10" guides="1" tooltips="1" connect="1" arrows="1" fold="1" page="1" pageScale="1" pageWidth="827" pageHeight="1169" math="0" shadow="0">
            <root>
                <mxCell id="HakBjv-raqnElcVXHbvr-0"/>
                <mxCell id="HakBjv-raqnElcVXHbvr-1" parent="HakBjv-raqnElcVXHbvr-0"/>
                <mxCell id="HakBjv-raqnElcVXHbvr-2" value="Product" style="swimlane;fontStyle=0;childLayout=stackLayout;horizontal=1;startSize=30;horizontalStack=0;resizeParent=1;resizeParentMax=0;resizeLast=0;collapsible=1;marginBottom=0;" vertex="1" parent="HakBjv-raqnElcVXHbvr-1">
                    <mxGeometry x="200" y="80" width="160" height="300" as="geometry"/>
                </mxCell>
                <mxCell id="HakBjv-raqnElcVXHbvr-3" value="product_id: int" style="text;strokeColor=#6c8ebf;fillColor=#dae8fc;align=left;verticalAlign=middle;spacingLeft=4;spacingRight=4;overflow=hidden;points=[[0,0.5],[1,0.5]];portConstraint=eastwest;rotatable=0;gradientColor=#FF3333;" vertex="1" parent="HakBjv-raqnElcVXHbvr-2">
                    <mxGeometry y="30" width="160" height="30" as="geometry"/>
                </mxCell>
                <mxCell id="HakBjv-raqnElcVXHbvr-4" value="Name: varchar 30" style="text;strokeColor=none;fillColor=none;align=left;verticalAlign=middle;spacingLeft=4;spacingRight=4;overflow=hidden;points=[[0,0.5],[1,0.5]];portConstraint=eastwest;rotatable=0;" vertex="1" parent="HakBjv-raqnElcVXHbvr-2">
                    <mxGeometry y="60" width="160" height="30" as="geometry"/>
                </mxCell>
                <mxCell id="HakBjv-raqnElcVXHbvr-5" value="Description: varchar 30" style="text;strokeColor=none;fillColor=none;align=left;verticalAlign=middle;spacingLeft=4;spacingRight=4;overflow=hidden;points=[[0,0.5],[1,0.5]];portConstraint=eastwest;rotatable=0;" vertex="1" parent="HakBjv-raqnElcVXHbvr-2">
                    <mxGeometry y="90" width="160" height="30" as="geometry"/>
                </mxCell>
                <mxCell id="HakBjv-raqnElcVXHbvr-6" value="Photo: varchar" style="text;strokeColor=none;fillColor=none;align=left;verticalAlign=middle;spacingLeft=4;spacingRight=4;overflow=hidden;points=[[0,0.5],[1,0.5]];portConstraint=eastwest;rotatable=0;" vertex="1" parent="HakBjv-raqnElcVXHbvr-2">
                    <mxGeometry y="120" width="160" height="30" as="geometry"/>
                </mxCell>
                <mxCell id="HakBjv-raqnElcVXHbvr-7" value="Price: int" style="text;strokeColor=none;fillColor=none;align=left;verticalAlign=middle;spacingLeft=4;spacingRight=4;overflow=hidden;points=[[0,0.5],[1,0.5]];portConstraint=eastwest;rotatable=0;" vertex="1" parent="HakBjv-raqnElcVXHbvr-2">
                    <mxGeometry y="150" width="160" height="30" as="geometry"/>
                </mxCell>
                <mxCell id="HakBjv-raqnElcVXHbvr-8" value="location: varchar 20" style="text;strokeColor=none;fillColor=none;align=left;verticalAlign=middle;spacingLeft=4;spacingRight=4;overflow=hidden;points=[[0,0.5],[1,0.5]];portConstraint=eastwest;rotatable=0;" vertex="1" parent="HakBjv-raqnElcVXHbvr-2">
                    <mxGeometry y="180" width="160" height="30" as="geometry"/>
                </mxCell>
                <mxCell id="HakBjv-raqnElcVXHbvr-9" value="Set: varchar 50" style="text;strokeColor=none;fillColor=none;align=left;verticalAlign=middle;spacingLeft=4;spacingRight=4;overflow=hidden;points=[[0,0.5],[1,0.5]];portConstraint=eastwest;rotatable=0;" vertex="1" parent="HakBjv-raqnElcVXHbvr-2">
                    <mxGeometry y="210" width="160" height="30" as="geometry"/>
                </mxCell>
                <mxCell id="HakBjv-raqnElcVXHbvr-10" value="fk_transaction_id: int" style="text;strokeColor=#3A5431;fillColor=#33FFFF;align=left;verticalAlign=middle;spacingLeft=4;spacingRight=4;overflow=hidden;points=[[0,0.5],[1,0.5]];portConstraint=eastwest;rotatable=0;fontColor=#ffffff;" vertex="1" parent="HakBjv-raqnElcVXHbvr-2">
                    <mxGeometry y="240" width="160" height="30" as="geometry"/>
                </mxCell>
                <mxCell id="HakBjv-raqnElcVXHbvr-11" value="fk_company_id: int" style="text;strokeColor=#3A5431;fillColor=#33FFFF;align=left;verticalAlign=middle;spacingLeft=4;spacingRight=4;overflow=hidden;points=[[0,0.5],[1,0.5]];portConstraint=eastwest;rotatable=0;fontColor=#ffffff;" vertex="1" parent="HakBjv-raqnElcVXHbvr-2">
                    <mxGeometry y="270" width="160" height="30" as="geometry"/>
                </mxCell>
                <mxCell id="HakBjv-raqnElcVXHbvr-12" value="Customer" style="swimlane;fontStyle=0;childLayout=stackLayout;horizontal=1;startSize=30;horizontalStack=0;resizeParent=1;resizeParentMax=0;resizeLast=0;collapsible=1;marginBottom=0;" vertex="1" parent="HakBjv-raqnElcVXHbvr-1">
                    <mxGeometry x="600" y="80" width="180" height="210" as="geometry"/>
                </mxCell>
                <mxCell id="HakBjv-raqnElcVXHbvr-13" value="customer_id: int" style="text;strokeColor=#6c8ebf;fillColor=#dae8fc;align=left;verticalAlign=middle;spacingLeft=4;spacingRight=4;overflow=hidden;points=[[0,0.5],[1,0.5]];portConstraint=eastwest;rotatable=0;gradientColor=#FF3333;" vertex="1" parent="HakBjv-raqnElcVXHbvr-12">
                    <mxGeometry y="30" width="180" height="30" as="geometry"/>
                </mxCell>
                <mxCell id="HakBjv-raqnElcVXHbvr-14" value="last_name: varchar 40" style="text;strokeColor=none;fillColor=none;align=left;verticalAlign=middle;spacingLeft=4;spacingRight=4;overflow=hidden;points=[[0,0.5],[1,0.5]];portConstraint=eastwest;rotatable=0;" vertex="1" parent="HakBjv-raqnElcVXHbvr-12">
                    <mxGeometry y="60" width="180" height="30" as="geometry"/>
                </mxCell>
                <mxCell id="HakBjv-raqnElcVXHbvr-15" value="first_name: varchar 40" style="text;strokeColor=none;fillColor=none;align=left;verticalAlign=middle;spacingLeft=4;spacingRight=4;overflow=hidden;points=[[0,0.5],[1,0.5]];portConstraint=eastwest;rotatable=0;" vertex="1" parent="HakBjv-raqnElcVXHbvr-12">
                    <mxGeometry y="90" width="180" height="30" as="geometry"/>
                </mxCell>
                <mxCell id="HakBjv-raqnElcVXHbvr-18" value="address: varchar 30" style="text;strokeColor=none;fillColor=none;align=left;verticalAlign=middle;spacingLeft=4;spacingRight=4;overflow=hidden;points=[[0,0.5],[1,0.5]];portConstraint=eastwest;rotatable=0;" vertex="1" parent="HakBjv-raqnElcVXHbvr-12">
                    <mxGeometry y="120" width="180" height="30" as="geometry"/>
                </mxCell>
                <mxCell id="HakBjv-raqnElcVXHbvr-19" value="email: varchar 20" style="text;strokeColor=none;fillColor=none;align=left;verticalAlign=middle;spacingLeft=4;spacingRight=4;overflow=hidden;points=[[0,0.5],[1,0.5]];portConstraint=eastwest;rotatable=0;" vertex="1" parent="HakBjv-raqnElcVXHbvr-12">
                    <mxGeometry y="150" width="180" height="30" as="geometry"/>
                </mxCell>
                <mxCell id="HakBjv-raqnElcVXHbvr-21" value="password: varchar 20" style="text;strokeColor=none;fillColor=none;align=left;verticalAlign=middle;spacingLeft=4;spacingRight=4;overflow=hidden;points=[[0,0.5],[1,0.5]];portConstraint=eastwest;rotatable=0;" vertex="1" parent="HakBjv-raqnElcVXHbvr-12">
                    <mxGeometry y="180" width="180" height="30" as="geometry"/>
                </mxCell>
                <mxCell id="HakBjv-raqnElcVXHbvr-22" value="Transaction" style="swimlane;fontStyle=0;childLayout=stackLayout;horizontal=1;startSize=30;horizontalStack=0;resizeParent=1;resizeParentMax=0;resizeLast=0;collapsible=1;marginBottom=0;" vertex="1" parent="HakBjv-raqnElcVXHbvr-1">
                    <mxGeometry x="390" y="80" width="150" height="210" as="geometry"/>
                </mxCell>
                <mxCell id="HakBjv-raqnElcVXHbvr-23" value="transaction_id: int" style="text;strokeColor=#6c8ebf;fillColor=#dae8fc;align=left;verticalAlign=middle;spacingLeft=4;spacingRight=4;overflow=hidden;points=[[0,0.5],[1,0.5]];portConstraint=eastwest;rotatable=0;gradientColor=#FF3333;" vertex="1" parent="HakBjv-raqnElcVXHbvr-22">
                    <mxGeometry y="30" width="150" height="30" as="geometry"/>
                </mxCell>
                <mxCell id="HakBjv-raqnElcVXHbvr-24" value="date: date" style="text;strokeColor=none;fillColor=none;align=left;verticalAlign=middle;spacingLeft=4;spacingRight=4;overflow=hidden;points=[[0,0.5],[1,0.5]];portConstraint=eastwest;rotatable=0;" vertex="1" parent="HakBjv-raqnElcVXHbvr-22">
                    <mxGeometry y="60" width="150" height="30" as="geometry"/>
                </mxCell>
                <mxCell id="HakBjv-raqnElcVXHbvr-25" value="bank: varchar" style="text;strokeColor=none;fillColor=none;align=left;verticalAlign=middle;spacingLeft=4;spacingRight=4;overflow=hidden;points=[[0,0.5],[1,0.5]];portConstraint=eastwest;rotatable=0;" vertex="1" parent="HakBjv-raqnElcVXHbvr-22">
                    <mxGeometry y="90" width="150" height="30" as="geometry"/>
                </mxCell>
                <mxCell id="HakBjv-raqnElcVXHbvr-26" value="approved: boolean/tinyint" style="text;strokeColor=none;fillColor=none;align=left;verticalAlign=middle;spacingLeft=4;spacingRight=4;overflow=hidden;points=[[0,0.5],[1,0.5]];portConstraint=eastwest;rotatable=0;" vertex="1" parent="HakBjv-raqnElcVXHbvr-22">
                    <mxGeometry y="120" width="150" height="30" as="geometry"/>
                </mxCell>
                <mxCell id="HakBjv-raqnElcVXHbvr-27" value="bank id: int" style="text;strokeColor=none;fillColor=none;align=left;verticalAlign=middle;spacingLeft=4;spacingRight=4;overflow=hidden;points=[[0,0.5],[1,0.5]];portConstraint=eastwest;rotatable=0;" vertex="1" parent="HakBjv-raqnElcVXHbvr-22">
                    <mxGeometry y="150" width="150" height="30" as="geometry"/>
                </mxCell>
                <mxCell id="o8E5SVYuvT2uIgpFQ-Xv-1" value="payment: int" style="text;strokeColor=none;fillColor=none;align=left;verticalAlign=middle;spacingLeft=4;spacingRight=4;overflow=hidden;points=[[0,0.5],[1,0.5]];portConstraint=eastwest;rotatable=0;" vertex="1" parent="HakBjv-raqnElcVXHbvr-22">
                    <mxGeometry y="180" width="150" height="30" as="geometry"/>
                </mxCell>
                <mxCell id="HakBjv-raqnElcVXHbvr-30" value="company" style="swimlane;fontStyle=0;childLayout=stackLayout;horizontal=1;startSize=30;horizontalStack=0;resizeParent=1;resizeParentMax=0;resizeLast=0;collapsible=1;marginBottom=0;" vertex="1" parent="HakBjv-raqnElcVXHbvr-1">
                    <mxGeometry x="10" y="80" width="140" height="210" as="geometry"/>
                </mxCell>
                <mxCell id="HakBjv-raqnElcVXHbvr-31" value="company_id: int" style="text;strokeColor=#6c8ebf;fillColor=#dae8fc;align=left;verticalAlign=middle;spacingLeft=4;spacingRight=4;overflow=hidden;points=[[0,0.5],[1,0.5]];portConstraint=eastwest;rotatable=0;gradientColor=#FF3333;" vertex="1" parent="HakBjv-raqnElcVXHbvr-30">
                    <mxGeometry y="30" width="140" height="30" as="geometry"/>
                </mxCell>
                <mxCell id="HakBjv-raqnElcVXHbvr-32" value="Name: varchar 30" style="text;strokeColor=none;fillColor=none;align=left;verticalAlign=middle;spacingLeft=4;spacingRight=4;overflow=hidden;points=[[0,0.5],[1,0.5]];portConstraint=eastwest;rotatable=0;" vertex="1" parent="HakBjv-raqnElcVXHbvr-30">
                    <mxGeometry y="60" width="140" height="30" as="geometry"/>
                </mxCell>
                <mxCell id="HakBjv-raqnElcVXHbvr-33" value="Email: varchar 30" style="text;strokeColor=none;fillColor=none;align=left;verticalAlign=middle;spacingLeft=4;spacingRight=4;overflow=hidden;points=[[0,0.5],[1,0.5]];portConstraint=eastwest;rotatable=0;" vertex="1" parent="HakBjv-raqnElcVXHbvr-30">
                    <mxGeometry y="90" width="140" height="30" as="geometry"/>
                </mxCell>
                <mxCell id="HakBjv-raqnElcVXHbvr-34" value="Phone: int" style="text;strokeColor=none;fillColor=none;align=left;verticalAlign=middle;spacingLeft=4;spacingRight=4;overflow=hidden;points=[[0,0.5],[1,0.5]];portConstraint=eastwest;rotatable=0;" vertex="1" parent="HakBjv-raqnElcVXHbvr-30">
                    <mxGeometry y="120" width="140" height="30" as="geometry"/>
                </mxCell>
                <mxCell id="HakBjv-raqnElcVXHbvr-35" value="Address: varchar 30" style="text;strokeColor=none;fillColor=none;align=left;verticalAlign=middle;spacingLeft=4;spacingRight=4;overflow=hidden;points=[[0,0.5],[1,0.5]];portConstraint=eastwest;rotatable=0;" vertex="1" parent="HakBjv-raqnElcVXHbvr-30">
                    <mxGeometry y="150" width="140" height="30" as="geometry"/>
                </mxCell>
                <mxCell id="HakBjv-raqnElcVXHbvr-36" value="fk_transaction_id: int" style="text;strokeColor=#3A5431;fillColor=#33FFFF;align=left;verticalAlign=middle;spacingLeft=4;spacingRight=4;overflow=hidden;points=[[0,0.5],[1,0.5]];portConstraint=eastwest;rotatable=0;fontColor=#ffffff;" vertex="1" parent="HakBjv-raqnElcVXHbvr-30">
                    <mxGeometry y="180" width="140" height="30" as="geometry"/>
                </mxCell>
                <mxCell id="HakBjv-raqnElcVXHbvr-37" style="edgeStyle=none;html=1;exitX=1;exitY=0.5;exitDx=0;exitDy=0;entryX=0;entryY=0.5;entryDx=0;entryDy=0;endArrow=ERmany;endFill=0;startArrow=ERone;startFill=0;" edge="1" parent="HakBjv-raqnElcVXHbvr-1" source="HakBjv-raqnElcVXHbvr-33" target="HakBjv-raqnElcVXHbvr-5">
                    <mxGeometry relative="1" as="geometry"/>
                </mxCell>
                <mxCell id="HakBjv-raqnElcVXHbvr-38" style="edgeStyle=none;html=1;exitX=1;exitY=0.5;exitDx=0;exitDy=0;entryX=0;entryY=0.5;entryDx=0;entryDy=0;startArrow=ERmany;startFill=0;endArrow=ERmany;endFill=0;" edge="1" parent="HakBjv-raqnElcVXHbvr-1" source="HakBjv-raqnElcVXHbvr-5" target="HakBjv-raqnElcVXHbvr-25">
                    <mxGeometry relative="1" as="geometry"/>
                </mxCell>
                <mxCell id="HakBjv-raqnElcVXHbvr-39" style="edgeStyle=none;html=1;exitX=1;exitY=0.5;exitDx=0;exitDy=0;entryX=0;entryY=0.5;entryDx=0;entryDy=0;startArrow=ERmany;startFill=0;endArrow=ERmany;endFill=0;" edge="1" parent="HakBjv-raqnElcVXHbvr-1" source="HakBjv-raqnElcVXHbvr-25" target="HakBjv-raqnElcVXHbvr-15">
                    <mxGeometry relative="1" as="geometry"/>
                </mxCell>
                <mxCell id="HakBjv-raqnElcVXHbvr-29" value="fk_product_id: int" style="text;strokeColor=#3A5431;fillColor=#33FFFF;align=left;verticalAlign=middle;spacingLeft=4;spacingRight=4;overflow=hidden;points=[[0,0.5],[1,0.5]];portConstraint=eastwest;rotatable=0;fontColor=#ffffff;" vertex="1" parent="HakBjv-raqnElcVXHbvr-1">
                    <mxGeometry x="390" y="320" width="150" height="30" as="geometry"/>
                </mxCell>
                <mxCell id="HakBjv-raqnElcVXHbvr-28" value="fk_customer_id: int" style="text;strokeColor=#3A5431;fillColor=#33FFFF;align=left;verticalAlign=middle;spacingLeft=4;spacingRight=4;overflow=hidden;points=[[0,0.5],[1,0.5]];portConstraint=eastwest;rotatable=0;fontColor=#ffffff;" vertex="1" parent="HakBjv-raqnElcVXHbvr-1">
                    <mxGeometry x="390" y="290" width="150" height="30" as="geometry"/>
                </mxCell>
            </root>
        </mxGraphModel>
    </diagram>
    <diagram id="ej0k2bZV9QFlN3ku0Wy5" name="Step_4_Normalize">
        <mxGraphModel dx="1550" dy="575" grid="1" gridSize="10" guides="1" tooltips="1" connect="1" arrows="1" fold="1" page="1" pageScale="1" pageWidth="827" pageHeight="1169" math="0" shadow="0">
            <root>
                <mxCell id="B2XZbP1B-sRMdNO6y9m9-0"/>
                <mxCell id="B2XZbP1B-sRMdNO6y9m9-1" parent="B2XZbP1B-sRMdNO6y9m9-0"/>
                <mxCell id="B2XZbP1B-sRMdNO6y9m9-2" value="Product" style="swimlane;fontStyle=0;childLayout=stackLayout;horizontal=1;startSize=30;horizontalStack=0;resizeParent=1;resizeParentMax=0;resizeLast=0;collapsible=1;marginBottom=0;" vertex="1" parent="B2XZbP1B-sRMdNO6y9m9-1">
                    <mxGeometry x="130" y="25" width="160" height="210" as="geometry"/>
                </mxCell>
                <mxCell id="B2XZbP1B-sRMdNO6y9m9-3" value="product_id: int" style="text;strokeColor=#314354;fillColor=#FF3333;align=left;verticalAlign=middle;spacingLeft=4;spacingRight=4;overflow=hidden;points=[[0,0.5],[1,0.5]];portConstraint=eastwest;rotatable=0;fontColor=#ffffff;" vertex="1" parent="B2XZbP1B-sRMdNO6y9m9-2">
                    <mxGeometry y="30" width="160" height="30" as="geometry"/>
                </mxCell>
                <mxCell id="B2XZbP1B-sRMdNO6y9m9-4" value="Name: varchar 30" style="text;strokeColor=none;fillColor=none;align=left;verticalAlign=middle;spacingLeft=4;spacingRight=4;overflow=hidden;points=[[0,0.5],[1,0.5]];portConstraint=eastwest;rotatable=0;" vertex="1" parent="B2XZbP1B-sRMdNO6y9m9-2">
                    <mxGeometry y="60" width="160" height="30" as="geometry"/>
                </mxCell>
                <mxCell id="B2XZbP1B-sRMdNO6y9m9-5" value="Description: vaarchar 30" style="text;strokeColor=none;fillColor=none;align=left;verticalAlign=middle;spacingLeft=4;spacingRight=4;overflow=hidden;points=[[0,0.5],[1,0.5]];portConstraint=eastwest;rotatable=0;" vertex="1" parent="B2XZbP1B-sRMdNO6y9m9-2">
                    <mxGeometry y="90" width="160" height="30" as="geometry"/>
                </mxCell>
                <mxCell id="B2XZbP1B-sRMdNO6y9m9-6" value="Photo: varchar" style="text;strokeColor=none;fillColor=none;align=left;verticalAlign=middle;spacingLeft=4;spacingRight=4;overflow=hidden;points=[[0,0.5],[1,0.5]];portConstraint=eastwest;rotatable=0;" vertex="1" parent="B2XZbP1B-sRMdNO6y9m9-2">
                    <mxGeometry y="120" width="160" height="30" as="geometry"/>
                </mxCell>
                <mxCell id="B2XZbP1B-sRMdNO6y9m9-7" value="Price: int" style="text;strokeColor=none;fillColor=none;align=left;verticalAlign=middle;spacingLeft=4;spacingRight=4;overflow=hidden;points=[[0,0.5],[1,0.5]];portConstraint=eastwest;rotatable=0;" vertex="1" parent="B2XZbP1B-sRMdNO6y9m9-2">
                    <mxGeometry y="150" width="160" height="30" as="geometry"/>
                </mxCell>
                <mxCell id="B2XZbP1B-sRMdNO6y9m9-8" value="fk_set_id: int" style="text;strokeColor=#3A5431;fillColor=#33FFFF;align=left;verticalAlign=middle;spacingLeft=4;spacingRight=4;overflow=hidden;points=[[0,0.5],[1,0.5]];portConstraint=eastwest;rotatable=0;fontColor=#ffffff;" vertex="1" parent="B2XZbP1B-sRMdNO6y9m9-2">
                    <mxGeometry y="180" width="160" height="30" as="geometry"/>
                </mxCell>
                <mxCell id="B2XZbP1B-sRMdNO6y9m9-9" value="Customer" style="swimlane;fontStyle=0;childLayout=stackLayout;horizontal=1;startSize=30;horizontalStack=0;resizeParent=1;resizeParentMax=0;resizeLast=0;collapsible=1;marginBottom=0;" vertex="1" parent="B2XZbP1B-sRMdNO6y9m9-1">
                    <mxGeometry x="650" y="30" width="150" height="270" as="geometry"/>
                </mxCell>
                <mxCell id="B2XZbP1B-sRMdNO6y9m9-10" value="customer_id: int" style="text;strokeColor=#314354;fillColor=#FF3333;align=left;verticalAlign=middle;spacingLeft=4;spacingRight=4;overflow=hidden;points=[[0,0.5],[1,0.5]];portConstraint=eastwest;rotatable=0;fontColor=#ffffff;" vertex="1" parent="B2XZbP1B-sRMdNO6y9m9-9">
                    <mxGeometry y="30" width="150" height="30" as="geometry"/>
                </mxCell>
                <mxCell id="B2XZbP1B-sRMdNO6y9m9-11" value="last_name: varchar 40" style="text;strokeColor=none;fillColor=none;align=left;verticalAlign=middle;spacingLeft=4;spacingRight=4;overflow=hidden;points=[[0,0.5],[1,0.5]];portConstraint=eastwest;rotatable=0;" vertex="1" parent="B2XZbP1B-sRMdNO6y9m9-9">
                    <mxGeometry y="60" width="150" height="30" as="geometry"/>
                </mxCell>
                <mxCell id="B2XZbP1B-sRMdNO6y9m9-12" value="first_name: varchar 40" style="text;strokeColor=none;fillColor=none;align=left;verticalAlign=middle;spacingLeft=4;spacingRight=4;overflow=hidden;points=[[0,0.5],[1,0.5]];portConstraint=eastwest;rotatable=0;" vertex="1" parent="B2XZbP1B-sRMdNO6y9m9-9">
                    <mxGeometry y="90" width="150" height="30" as="geometry"/>
                </mxCell>
                <mxCell id="B2XZbP1B-sRMdNO6y9m9-13" value="email: varchar 20" style="text;strokeColor=none;fillColor=none;align=left;verticalAlign=middle;spacingLeft=4;spacingRight=4;overflow=hidden;points=[[0,0.5],[1,0.5]];portConstraint=eastwest;rotatable=0;" vertex="1" parent="B2XZbP1B-sRMdNO6y9m9-9">
                    <mxGeometry y="120" width="150" height="30" as="geometry"/>
                </mxCell>
                <mxCell id="B2XZbP1B-sRMdNO6y9m9-15" value="password: varchar 20" style="text;strokeColor=none;fillColor=none;align=left;verticalAlign=middle;spacingLeft=4;spacingRight=4;overflow=hidden;points=[[0,0.5],[1,0.5]];portConstraint=eastwest;rotatable=0;" vertex="1" parent="B2XZbP1B-sRMdNO6y9m9-9">
                    <mxGeometry y="150" width="150" height="30" as="geometry"/>
                </mxCell>
                <mxCell id="B2XZbP1B-sRMdNO6y9m9-16" value="fk_order_id: int" style="text;strokeColor=#3A5431;fillColor=#33FFFF;align=left;verticalAlign=middle;spacingLeft=4;spacingRight=4;overflow=hidden;points=[[0,0.5],[1,0.5]];portConstraint=eastwest;rotatable=0;fontColor=#ffffff;" vertex="1" parent="B2XZbP1B-sRMdNO6y9m9-9">
                    <mxGeometry y="180" width="150" height="30" as="geometry"/>
                </mxCell>
                <mxCell id="B2XZbP1B-sRMdNO6y9m9-17" value="fk_location_id: int" style="text;strokeColor=#3A5431;fillColor=#33FFFF;align=left;verticalAlign=middle;spacingLeft=4;spacingRight=4;overflow=hidden;points=[[0,0.5],[1,0.5]];portConstraint=eastwest;rotatable=0;fontColor=#ffffff;" vertex="1" parent="B2XZbP1B-sRMdNO6y9m9-9">
                    <mxGeometry y="210" width="150" height="30" as="geometry"/>
                </mxCell>
                <mxCell id="B2XZbP1B-sRMdNO6y9m9-18" value="Fk_transaction_id: int" style="text;strokeColor=#3A5431;fillColor=#33FFFF;align=left;verticalAlign=middle;spacingLeft=4;spacingRight=4;overflow=hidden;points=[[0,0.5],[1,0.5]];portConstraint=eastwest;rotatable=0;fontColor=#ffffff;" vertex="1" parent="B2XZbP1B-sRMdNO6y9m9-9">
                    <mxGeometry y="240" width="150" height="30" as="geometry"/>
                </mxCell>
                <mxCell id="B2XZbP1B-sRMdNO6y9m9-19" value="Order" style="swimlane;fontStyle=0;childLayout=stackLayout;horizontal=1;startSize=30;horizontalStack=0;resizeParent=1;resizeParentMax=0;resizeLast=0;collapsible=1;marginBottom=0;" vertex="1" parent="B2XZbP1B-sRMdNO6y9m9-1">
                    <mxGeometry x="400" y="70" width="140" height="240" as="geometry"/>
                </mxCell>
                <mxCell id="B2XZbP1B-sRMdNO6y9m9-20" value="Order_id: int" style="text;strokeColor=#314354;fillColor=#FF3333;align=left;verticalAlign=middle;spacingLeft=4;spacingRight=4;overflow=hidden;points=[[0,0.5],[1,0.5]];portConstraint=eastwest;rotatable=0;fontColor=#ffffff;" vertex="1" parent="B2XZbP1B-sRMdNO6y9m9-19">
                    <mxGeometry y="30" width="140" height="30" as="geometry"/>
                </mxCell>
                <mxCell id="B2XZbP1B-sRMdNO6y9m9-21" value="OrderDate: date" style="text;strokeColor=none;fillColor=none;align=left;verticalAlign=middle;spacingLeft=4;spacingRight=4;overflow=hidden;points=[[0,0.5],[1,0.5]];portConstraint=eastwest;rotatable=0;" vertex="1" parent="B2XZbP1B-sRMdNO6y9m9-19">
                    <mxGeometry y="60" width="140" height="30" as="geometry"/>
                </mxCell>
                <mxCell id="B2XZbP1B-sRMdNO6y9m9-22" value="ShipDate: date" style="text;strokeColor=none;fillColor=none;align=left;verticalAlign=middle;spacingLeft=4;spacingRight=4;overflow=hidden;points=[[0,0.5],[1,0.5]];portConstraint=eastwest;rotatable=0;" vertex="1" parent="B2XZbP1B-sRMdNO6y9m9-19">
                    <mxGeometry y="90" width="140" height="30" as="geometry"/>
                </mxCell>
                <mxCell id="B2XZbP1B-sRMdNO6y9m9-23" value="DeliveryDate: date" style="text;strokeColor=none;fillColor=none;align=left;verticalAlign=middle;spacingLeft=4;spacingRight=4;overflow=hidden;points=[[0,0.5],[1,0.5]];portConstraint=eastwest;rotatable=0;" vertex="1" parent="B2XZbP1B-sRMdNO6y9m9-19">
                    <mxGeometry y="120" width="140" height="30" as="geometry"/>
                </mxCell>
                <mxCell id="B2XZbP1B-sRMdNO6y9m9-24" value="Quantity: Int" style="text;strokeColor=none;fillColor=none;align=left;verticalAlign=middle;spacingLeft=4;spacingRight=4;overflow=hidden;points=[[0,0.5],[1,0.5]];portConstraint=eastwest;rotatable=0;" vertex="1" parent="B2XZbP1B-sRMdNO6y9m9-19">
                    <mxGeometry y="150" width="140" height="30" as="geometry"/>
                </mxCell>
                <mxCell id="B2XZbP1B-sRMdNO6y9m9-25" value="PriceSum: Int" style="text;strokeColor=none;fillColor=none;align=left;verticalAlign=middle;spacingLeft=4;spacingRight=4;overflow=hidden;points=[[0,0.5],[1,0.5]];portConstraint=eastwest;rotatable=0;" vertex="1" parent="B2XZbP1B-sRMdNO6y9m9-19">
                    <mxGeometry y="180" width="140" height="30" as="geometry"/>
                </mxCell>
                <mxCell id="B2XZbP1B-sRMdNO6y9m9-26" value="Fk_ship_id: int" style="text;strokeColor=#3A5431;fillColor=#33FFFF;align=left;verticalAlign=middle;spacingLeft=4;spacingRight=4;overflow=hidden;points=[[0,0.5],[1,0.5]];portConstraint=eastwest;rotatable=0;fontColor=#ffffff;" vertex="1" parent="B2XZbP1B-sRMdNO6y9m9-19">
                    <mxGeometry y="210" width="140" height="30" as="geometry"/>
                </mxCell>
                <mxCell id="B2XZbP1B-sRMdNO6y9m9-27" value="Set" style="swimlane;fontStyle=0;childLayout=stackLayout;horizontal=1;startSize=30;horizontalStack=0;resizeParent=1;resizeParentMax=0;resizeLast=0;collapsible=1;marginBottom=0;" vertex="1" parent="B2XZbP1B-sRMdNO6y9m9-1">
                    <mxGeometry x="-60" y="20" width="130" height="90" as="geometry"/>
                </mxCell>
                <mxCell id="B2XZbP1B-sRMdNO6y9m9-28" value="set_id: int" style="text;strokeColor=#314354;fillColor=#FF3333;align=left;verticalAlign=middle;spacingLeft=4;spacingRight=4;overflow=hidden;points=[[0,0.5],[1,0.5]];portConstraint=eastwest;rotatable=0;fontColor=#ffffff;" vertex="1" parent="B2XZbP1B-sRMdNO6y9m9-27">
                    <mxGeometry y="30" width="130" height="30" as="geometry"/>
                </mxCell>
                <mxCell id="B2XZbP1B-sRMdNO6y9m9-29" value="Name: varchar 20" style="text;strokeColor=none;fillColor=none;align=left;verticalAlign=middle;spacingLeft=4;spacingRight=4;overflow=hidden;points=[[0,0.5],[1,0.5]];portConstraint=eastwest;rotatable=0;" vertex="1" parent="B2XZbP1B-sRMdNO6y9m9-27">
                    <mxGeometry y="60" width="130" height="30" as="geometry"/>
                </mxCell>
                <mxCell id="B2XZbP1B-sRMdNO6y9m9-30" style="edgeStyle=orthogonalEdgeStyle;html=1;exitX=1;exitY=0.5;exitDx=0;exitDy=0;entryX=0;entryY=0.5;entryDx=0;entryDy=0;endArrow=ERone;endFill=0;startArrow=ERone;startFill=0;" edge="1" parent="B2XZbP1B-sRMdNO6y9m9-1" source="B2XZbP1B-sRMdNO6y9m9-28" target="B2XZbP1B-sRMdNO6y9m9-8">
                    <mxGeometry relative="1" as="geometry"/>
                </mxCell>
                <mxCell id="B2XZbP1B-sRMdNO6y9m9-31" value="Shipping" style="swimlane;fontStyle=0;childLayout=stackLayout;horizontal=1;startSize=30;horizontalStack=0;resizeParent=1;resizeParentMax=0;resizeLast=0;collapsible=1;marginBottom=0;" vertex="1" parent="B2XZbP1B-sRMdNO6y9m9-1">
                    <mxGeometry x="40" y="540" width="160" height="120" as="geometry"/>
                </mxCell>
                <mxCell id="B2XZbP1B-sRMdNO6y9m9-32" value="Shipping_id: int" style="text;strokeColor=#314354;fillColor=#FF3333;align=left;verticalAlign=middle;spacingLeft=4;spacingRight=4;overflow=hidden;points=[[0,0.5],[1,0.5]];portConstraint=eastwest;rotatable=0;fontColor=#ffffff;" vertex="1" parent="B2XZbP1B-sRMdNO6y9m9-31">
                    <mxGeometry y="30" width="160" height="30" as="geometry"/>
                </mxCell>
                <mxCell id="B2XZbP1B-sRMdNO6y9m9-33" value="StartLocation: varchar 30" style="text;align=left;verticalAlign=middle;spacingLeft=4;spacingRight=4;overflow=hidden;points=[[0,0.5],[1,0.5]];portConstraint=eastwest;rotatable=0;" vertex="1" parent="B2XZbP1B-sRMdNO6y9m9-31">
                    <mxGeometry y="60" width="160" height="30" as="geometry"/>
                </mxCell>
                <mxCell id="B2XZbP1B-sRMdNO6y9m9-34" value="EndLocation: varchar 30" style="text;align=left;verticalAlign=middle;spacingLeft=4;spacingRight=4;overflow=hidden;points=[[0,0.5],[1,0.5]];portConstraint=eastwest;rotatable=0;" vertex="1" parent="B2XZbP1B-sRMdNO6y9m9-31">
                    <mxGeometry y="90" width="160" height="30" as="geometry"/>
                </mxCell>
                <mxCell id="B2XZbP1B-sRMdNO6y9m9-35" value="Company" style="swimlane;fontStyle=0;childLayout=stackLayout;horizontal=1;startSize=30;horizontalStack=0;resizeParent=1;resizeParentMax=0;resizeLast=0;collapsible=1;marginBottom=0;" vertex="1" parent="B2XZbP1B-sRMdNO6y9m9-1">
                    <mxGeometry x="-1" y="300" width="140" height="210" as="geometry"/>
                </mxCell>
                <mxCell id="B2XZbP1B-sRMdNO6y9m9-36" value="company_id: int" style="text;strokeColor=#314354;fillColor=#FF3333;align=left;verticalAlign=middle;spacingLeft=4;spacingRight=4;overflow=hidden;points=[[0,0.5],[1,0.5]];portConstraint=eastwest;rotatable=0;fontColor=#ffffff;" vertex="1" parent="B2XZbP1B-sRMdNO6y9m9-35">
                    <mxGeometry y="30" width="140" height="30" as="geometry"/>
                </mxCell>
                <mxCell id="B2XZbP1B-sRMdNO6y9m9-37" value="Name: varchar 30" style="text;strokeColor=none;fillColor=none;align=left;verticalAlign=middle;spacingLeft=4;spacingRight=4;overflow=hidden;points=[[0,0.5],[1,0.5]];portConstraint=eastwest;rotatable=0;" vertex="1" parent="B2XZbP1B-sRMdNO6y9m9-35">
                    <mxGeometry y="60" width="140" height="30" as="geometry"/>
                </mxCell>
                <mxCell id="B2XZbP1B-sRMdNO6y9m9-38" value="Email: varchar 30" style="text;strokeColor=none;fillColor=none;align=left;verticalAlign=middle;spacingLeft=4;spacingRight=4;overflow=hidden;points=[[0,0.5],[1,0.5]];portConstraint=eastwest;rotatable=0;" vertex="1" parent="B2XZbP1B-sRMdNO6y9m9-35">
                    <mxGeometry y="90" width="140" height="30" as="geometry"/>
                </mxCell>
                <mxCell id="B2XZbP1B-sRMdNO6y9m9-39" value="Telephone: int" style="text;strokeColor=none;fillColor=none;align=left;verticalAlign=middle;spacingLeft=4;spacingRight=4;overflow=hidden;points=[[0,0.5],[1,0.5]];portConstraint=eastwest;rotatable=0;" vertex="1" parent="B2XZbP1B-sRMdNO6y9m9-35">
                    <mxGeometry y="120" width="140" height="30" as="geometry"/>
                </mxCell>
                <mxCell id="B2XZbP1B-sRMdNO6y9m9-40" value="fk_location_id: int" style="text;strokeColor=#3A5431;fillColor=#33FFFF;align=left;verticalAlign=middle;spacingLeft=4;spacingRight=4;overflow=hidden;points=[[0,0.5],[1,0.5]];portConstraint=eastwest;rotatable=0;fontColor=#ffffff;" vertex="1" parent="B2XZbP1B-sRMdNO6y9m9-35">
                    <mxGeometry y="150" width="140" height="30" as="geometry"/>
                </mxCell>
                <mxCell id="B2XZbP1B-sRMdNO6y9m9-41" value="fk_bankN_id: int" style="text;strokeColor=#3A5431;fillColor=#33FFFF;align=left;verticalAlign=middle;spacingLeft=4;spacingRight=4;overflow=hidden;points=[[0,0.5],[1,0.5]];portConstraint=eastwest;rotatable=0;fontColor=#ffffff;" vertex="1" parent="B2XZbP1B-sRMdNO6y9m9-35">
                    <mxGeometry y="180" width="140" height="30" as="geometry"/>
                </mxCell>
                <mxCell id="B2XZbP1B-sRMdNO6y9m9-42" value="Transaction" style="swimlane;fontStyle=0;childLayout=stackLayout;horizontal=1;startSize=30;horizontalStack=0;resizeParent=1;resizeParentMax=0;resizeLast=0;collapsible=1;marginBottom=0;" vertex="1" parent="B2XZbP1B-sRMdNO6y9m9-1">
                    <mxGeometry x="600" y="560" width="160" height="150" as="geometry"/>
                </mxCell>
                <mxCell id="B2XZbP1B-sRMdNO6y9m9-43" value="transaction_id: int" style="text;strokeColor=#314354;fillColor=#FF3333;align=left;verticalAlign=middle;spacingLeft=4;spacingRight=4;overflow=hidden;points=[[0,0.5],[1,0.5]];portConstraint=eastwest;rotatable=0;fontColor=#ffffff;" vertex="1" parent="B2XZbP1B-sRMdNO6y9m9-42">
                    <mxGeometry y="30" width="160" height="30" as="geometry"/>
                </mxCell>
                <mxCell id="B2XZbP1B-sRMdNO6y9m9-44" value="Tdate: date" style="text;strokeColor=none;fillColor=none;align=left;verticalAlign=middle;spacingLeft=4;spacingRight=4;overflow=hidden;points=[[0,0.5],[1,0.5]];portConstraint=eastwest;rotatable=0;" vertex="1" parent="B2XZbP1B-sRMdNO6y9m9-42">
                    <mxGeometry y="60" width="160" height="30" as="geometry"/>
                </mxCell>
                <mxCell id="B2XZbP1B-sRMdNO6y9m9-45" value="approved: boolean/tinyint" style="text;strokeColor=none;fillColor=none;align=left;verticalAlign=middle;spacingLeft=4;spacingRight=4;overflow=hidden;points=[[0,0.5],[1,0.5]];portConstraint=eastwest;rotatable=0;" vertex="1" parent="B2XZbP1B-sRMdNO6y9m9-42">
                    <mxGeometry y="90" width="160" height="30" as="geometry"/>
                </mxCell>
                <mxCell id="B2XZbP1B-sRMdNO6y9m9-46" value="fk_bankN: int" style="text;strokeColor=#3A5431;fillColor=#33FFFF;align=left;verticalAlign=middle;spacingLeft=4;spacingRight=4;overflow=hidden;points=[[0,0.5],[1,0.5]];portConstraint=eastwest;rotatable=0;fontColor=#ffffff;" vertex="1" parent="B2XZbP1B-sRMdNO6y9m9-42">
                    <mxGeometry y="120" width="160" height="30" as="geometry"/>
                </mxCell>
                <mxCell id="B2XZbP1B-sRMdNO6y9m9-47" style="edgeStyle=orthogonalEdgeStyle;html=1;exitX=0;exitY=0.5;exitDx=0;exitDy=0;entryX=1;entryY=0.5;entryDx=0;entryDy=0;startArrow=ERone;startFill=0;endArrow=ERone;endFill=0;" edge="1" parent="B2XZbP1B-sRMdNO6y9m9-1" source="B2XZbP1B-sRMdNO6y9m9-51" target="B2XZbP1B-sRMdNO6y9m9-36">
                    <mxGeometry relative="1" as="geometry">
                        <mxPoint x="180" y="310" as="sourcePoint"/>
                    </mxGeometry>
                </mxCell>
                <mxCell id="B2XZbP1B-sRMdNO6y9m9-48" style="edgeStyle=orthogonalEdgeStyle;html=1;exitX=0;exitY=0.5;exitDx=0;exitDy=0;entryX=1;entryY=0.5;entryDx=0;entryDy=0;startArrow=ERone;startFill=0;endArrow=ERone;endFill=0;" edge="1" parent="B2XZbP1B-sRMdNO6y9m9-1" source="B2XZbP1B-sRMdNO6y9m9-16" target="B2XZbP1B-sRMdNO6y9m9-20">
                    <mxGeometry relative="1" as="geometry"/>
                </mxCell>
                <mxCell id="B2XZbP1B-sRMdNO6y9m9-49" value="Famazon" style="swimlane;fontStyle=0;childLayout=stackLayout;horizontal=1;startSize=20;horizontalStack=0;resizeParent=1;resizeParentMax=0;resizeLast=0;collapsible=1;marginBottom=0;" vertex="1" parent="B2XZbP1B-sRMdNO6y9m9-1">
                    <mxGeometry x="320" y="360" width="140" height="110" as="geometry"/>
                </mxCell>
                <mxCell id="B2XZbP1B-sRMdNO6y9m9-50" value="Fk_customer_id: int" style="text;strokeColor=#3A5431;fillColor=#33FFFF;align=left;verticalAlign=middle;spacingLeft=4;spacingRight=4;overflow=hidden;points=[[0,0.5],[1,0.5]];portConstraint=eastwest;rotatable=0;fontColor=#ffffff;" vertex="1" parent="B2XZbP1B-sRMdNO6y9m9-49">
                    <mxGeometry y="20" width="140" height="30" as="geometry"/>
                </mxCell>
                <mxCell id="B2XZbP1B-sRMdNO6y9m9-51" value="Fk_companie_id: int" style="text;strokeColor=#3A5431;fillColor=#33FFFF;align=left;verticalAlign=middle;spacingLeft=4;spacingRight=4;overflow=hidden;points=[[0,0.5],[1,0.5]];portConstraint=eastwest;rotatable=0;fontColor=#ffffff;" vertex="1" parent="B2XZbP1B-sRMdNO6y9m9-49">
                    <mxGeometry y="50" width="140" height="30" as="geometry"/>
                </mxCell>
                <mxCell id="B2XZbP1B-sRMdNO6y9m9-52" value="Fk_product_id: int" style="text;strokeColor=#3A5431;fillColor=#33FFFF;align=left;verticalAlign=middle;spacingLeft=4;spacingRight=4;overflow=hidden;points=[[0,0.5],[1,0.5]];portConstraint=eastwest;rotatable=0;fontColor=#ffffff;" vertex="1" parent="B2XZbP1B-sRMdNO6y9m9-49">
                    <mxGeometry y="80" width="140" height="30" as="geometry"/>
                </mxCell>
                <mxCell id="B2XZbP1B-sRMdNO6y9m9-53" value="Location" style="swimlane;fontStyle=0;childLayout=stackLayout;horizontal=1;startSize=30;horizontalStack=0;resizeParent=1;resizeParentMax=0;resizeLast=0;collapsible=1;marginBottom=0;" vertex="1" parent="B2XZbP1B-sRMdNO6y9m9-1">
                    <mxGeometry x="360" y="500" width="140" height="150" as="geometry"/>
                </mxCell>
                <mxCell id="B2XZbP1B-sRMdNO6y9m9-54" value="location_id: int" style="text;strokeColor=#314354;fillColor=#FF3333;align=left;verticalAlign=middle;spacingLeft=4;spacingRight=4;overflow=hidden;points=[[0,0.5],[1,0.5]];portConstraint=eastwest;rotatable=0;fontColor=#ffffff;" vertex="1" parent="B2XZbP1B-sRMdNO6y9m9-53">
                    <mxGeometry y="30" width="140" height="30" as="geometry"/>
                </mxCell>
                <mxCell id="B2XZbP1B-sRMdNO6y9m9-55" value="Address: varchar 30" style="text;align=left;verticalAlign=middle;spacingLeft=4;spacingRight=4;overflow=hidden;points=[[0,0.5],[1,0.5]];portConstraint=eastwest;rotatable=0;" vertex="1" parent="B2XZbP1B-sRMdNO6y9m9-53">
                    <mxGeometry y="60" width="140" height="30" as="geometry"/>
                </mxCell>
                <mxCell id="B2XZbP1B-sRMdNO6y9m9-56" value="ZIP: int" style="text;align=left;verticalAlign=middle;spacingLeft=4;spacingRight=4;overflow=hidden;points=[[0,0.5],[1,0.5]];portConstraint=eastwest;rotatable=0;" vertex="1" parent="B2XZbP1B-sRMdNO6y9m9-53">
                    <mxGeometry y="90" width="140" height="30" as="geometry"/>
                </mxCell>
                <mxCell id="B2XZbP1B-sRMdNO6y9m9-57" value="City: varchar 30" style="text;align=left;verticalAlign=middle;spacingLeft=4;spacingRight=4;overflow=hidden;points=[[0,0.5],[1,0.5]];portConstraint=eastwest;rotatable=0;" vertex="1" parent="B2XZbP1B-sRMdNO6y9m9-53">
                    <mxGeometry y="120" width="140" height="30" as="geometry"/>
                </mxCell>
                <mxCell id="B2XZbP1B-sRMdNO6y9m9-58" style="edgeStyle=orthogonalEdgeStyle;html=1;exitX=1;exitY=0.5;exitDx=0;exitDy=0;entryX=0;entryY=0.5;entryDx=0;entryDy=0;endArrow=ERone;endFill=0;startArrow=ERone;startFill=0;" edge="1" parent="B2XZbP1B-sRMdNO6y9m9-1" source="B2XZbP1B-sRMdNO6y9m9-40" target="B2XZbP1B-sRMdNO6y9m9-54">
                    <mxGeometry relative="1" as="geometry"/>
                </mxCell>
                <mxCell id="B2XZbP1B-sRMdNO6y9m9-59" style="edgeStyle=orthogonalEdgeStyle;html=1;exitX=1;exitY=0.5;exitDx=0;exitDy=0;entryX=1;entryY=0.5;entryDx=0;entryDy=0;startArrow=ERone;startFill=0;endArrow=ERone;endFill=0;" edge="1" parent="B2XZbP1B-sRMdNO6y9m9-1" source="B2XZbP1B-sRMdNO6y9m9-54" target="B2XZbP1B-sRMdNO6y9m9-17">
                    <mxGeometry relative="1" as="geometry"/>
                </mxCell>
                <mxCell id="B2XZbP1B-sRMdNO6y9m9-60" style="edgeStyle=orthogonalEdgeStyle;html=1;exitX=1;exitY=0.5;exitDx=0;exitDy=0;entryX=1;entryY=0.25;entryDx=0;entryDy=0;startArrow=ERone;startFill=0;endArrow=ERone;endFill=0;" edge="1" parent="B2XZbP1B-sRMdNO6y9m9-1" source="B2XZbP1B-sRMdNO6y9m9-18" target="B2XZbP1B-sRMdNO6y9m9-42">
                    <mxGeometry relative="1" as="geometry">
                        <Array as="points">
                            <mxPoint x="800" y="375"/>
                            <mxPoint x="800" y="605"/>
                        </Array>
                    </mxGeometry>
                </mxCell>
                <mxCell id="B2XZbP1B-sRMdNO6y9m9-61" style="edgeStyle=orthogonalEdgeStyle;html=1;exitX=0;exitY=0.5;exitDx=0;exitDy=0;entryX=1;entryY=0.5;entryDx=0;entryDy=0;startArrow=ERone;startFill=0;endArrow=ERone;endFill=0;" edge="1" parent="B2XZbP1B-sRMdNO6y9m9-1" source="B2XZbP1B-sRMdNO6y9m9-10" target="B2XZbP1B-sRMdNO6y9m9-50">
                    <mxGeometry relative="1" as="geometry"/>
                </mxCell>
                <mxCell id="B2XZbP1B-sRMdNO6y9m9-62" style="edgeStyle=orthogonalEdgeStyle;html=1;exitX=0;exitY=0.5;exitDx=0;exitDy=0;entryX=1;entryY=0.5;entryDx=0;entryDy=0;startArrow=ERone;startFill=0;endArrow=ERone;endFill=0;" edge="1" parent="B2XZbP1B-sRMdNO6y9m9-1" source="B2XZbP1B-sRMdNO6y9m9-26" target="B2XZbP1B-sRMdNO6y9m9-32">
                    <mxGeometry relative="1" as="geometry"/>
                </mxCell>
                <mxCell id="B2XZbP1B-sRMdNO6y9m9-63" style="edgeStyle=orthogonalEdgeStyle;html=1;exitX=1;exitY=0.5;exitDx=0;exitDy=0;startArrow=ERone;startFill=0;endArrow=ERone;endFill=0;" edge="1" parent="B2XZbP1B-sRMdNO6y9m9-1" source="B2XZbP1B-sRMdNO6y9m9-3">
                    <mxGeometry relative="1" as="geometry">
                        <mxPoint x="320" y="460" as="targetPoint"/>
                        <Array as="points">
                            <mxPoint x="300" y="70"/>
                            <mxPoint x="300" y="460"/>
                        </Array>
                    </mxGeometry>
                </mxCell>
                <mxCell id="B2XZbP1B-sRMdNO6y9m9-64" value="Bank" style="swimlane;fontStyle=0;childLayout=stackLayout;horizontal=1;startSize=30;horizontalStack=0;resizeParent=1;resizeParentMax=0;resizeLast=0;collapsible=1;marginBottom=0;" vertex="1" parent="B2XZbP1B-sRMdNO6y9m9-1">
                    <mxGeometry x="290" y="680" width="140" height="120" as="geometry"/>
                </mxCell>
                <mxCell id="B2XZbP1B-sRMdNO6y9m9-65" value="Bank_id: int" style="text;strokeColor=#314354;fillColor=#FF3333;align=left;verticalAlign=middle;spacingLeft=4;spacingRight=4;overflow=hidden;points=[[0,0.5],[1,0.5]];portConstraint=eastwest;rotatable=0;fontColor=#ffffff;" vertex="1" parent="B2XZbP1B-sRMdNO6y9m9-64">
                    <mxGeometry y="30" width="140" height="30" as="geometry"/>
                </mxCell>
                <mxCell id="B2XZbP1B-sRMdNO6y9m9-66" value="BankName: varchar 30" style="text;align=left;verticalAlign=middle;spacingLeft=4;spacingRight=4;overflow=hidden;points=[[0,0.5],[1,0.5]];portConstraint=eastwest;rotatable=0;" vertex="1" parent="B2XZbP1B-sRMdNO6y9m9-64">
                    <mxGeometry y="60" width="140" height="30" as="geometry"/>
                </mxCell>
                <mxCell id="EO6FqmkYln-h8NTiNzYQ-6" value="fk_payment optin" style="text;align=left;verticalAlign=middle;spacingLeft=4;spacingRight=4;overflow=hidden;points=[[0,0.5],[1,0.5]];portConstraint=eastwest;rotatable=0;fillColor=#33FFFF;" vertex="1" parent="B2XZbP1B-sRMdNO6y9m9-64">
                    <mxGeometry y="90" width="140" height="30" as="geometry"/>
                </mxCell>
                <mxCell id="B2XZbP1B-sRMdNO6y9m9-67" style="edgeStyle=orthogonalEdgeStyle;html=1;exitX=1;exitY=0.5;exitDx=0;exitDy=0;entryX=0;entryY=0.5;entryDx=0;entryDy=0;startArrow=ERone;startFill=0;endArrow=ERone;endFill=0;" edge="1" parent="B2XZbP1B-sRMdNO6y9m9-1" source="B2XZbP1B-sRMdNO6y9m9-41" target="B2XZbP1B-sRMdNO6y9m9-64">
                    <mxGeometry relative="1" as="geometry"/>
                </mxCell>
                <mxCell id="B2XZbP1B-sRMdNO6y9m9-68" style="edgeStyle=orthogonalEdgeStyle;html=1;exitX=0;exitY=0.5;exitDx=0;exitDy=0;entryX=1;entryY=0.5;entryDx=0;entryDy=0;startArrow=ERone;startFill=0;endArrow=ERone;endFill=0;" edge="1" parent="B2XZbP1B-sRMdNO6y9m9-1" source="B2XZbP1B-sRMdNO6y9m9-46" target="B2XZbP1B-sRMdNO6y9m9-64">
                    <mxGeometry relative="1" as="geometry"/>
                </mxCell>
                <mxCell id="EO6FqmkYln-h8NTiNzYQ-0" value="Payment" style="swimlane;fontStyle=0;childLayout=stackLayout;horizontal=1;startSize=26;fillColor=none;horizontalStack=0;resizeParent=1;resizeParentMax=0;resizeLast=0;collapsible=1;marginBottom=0;" vertex="1" parent="B2XZbP1B-sRMdNO6y9m9-1">
                    <mxGeometry x="100" y="770" width="140" height="130" as="geometry"/>
                </mxCell>
                <mxCell id="EO6FqmkYln-h8NTiNzYQ-2" value="Payment id: int" style="text;strokeColor=none;fillColor=#FF3333;align=left;verticalAlign=top;spacingLeft=4;spacingRight=4;overflow=hidden;rotatable=0;points=[[0,0.5],[1,0.5]];portConstraint=eastwest;" vertex="1" parent="EO6FqmkYln-h8NTiNzYQ-0">
                    <mxGeometry y="26" width="140" height="26" as="geometry"/>
                </mxCell>
                <mxCell id="EO6FqmkYln-h8NTiNzYQ-3" value="card_number: int" style="text;strokeColor=none;fillColor=none;align=left;verticalAlign=top;spacingLeft=4;spacingRight=4;overflow=hidden;rotatable=0;points=[[0,0.5],[1,0.5]];portConstraint=eastwest;" vertex="1" parent="EO6FqmkYln-h8NTiNzYQ-0">
                    <mxGeometry y="52" width="140" height="26" as="geometry"/>
                </mxCell>
                <mxCell id="EO6FqmkYln-h8NTiNzYQ-4" value="bic: varchar 30" style="text;strokeColor=none;fillColor=none;align=left;verticalAlign=top;spacingLeft=4;spacingRight=4;overflow=hidden;rotatable=0;points=[[0,0.5],[1,0.5]];portConstraint=eastwest;" vertex="1" parent="EO6FqmkYln-h8NTiNzYQ-0">
                    <mxGeometry y="78" width="140" height="26" as="geometry"/>
                </mxCell>
                <mxCell id="EO6FqmkYln-h8NTiNzYQ-5" value="expire: date" style="text;strokeColor=none;fillColor=none;align=left;verticalAlign=top;spacingLeft=4;spacingRight=4;overflow=hidden;rotatable=0;points=[[0,0.5],[1,0.5]];portConstraint=eastwest;" vertex="1" parent="EO6FqmkYln-h8NTiNzYQ-0">
                    <mxGeometry y="104" width="140" height="26" as="geometry"/>
                </mxCell>
                <mxCell id="EO6FqmkYln-h8NTiNzYQ-7" value="" style="endArrow=ERone;html=1;entryX=0;entryY=0.5;entryDx=0;entryDy=0;startArrow=ERone;startFill=0;endFill=0;edgeStyle=orthogonalEdgeStyle;" edge="1" parent="B2XZbP1B-sRMdNO6y9m9-1" target="EO6FqmkYln-h8NTiNzYQ-6">
                    <mxGeometry width="50" height="50" relative="1" as="geometry">
                        <mxPoint x="240" y="810" as="sourcePoint"/>
                        <mxPoint x="240" y="780" as="targetPoint"/>
                    </mxGeometry>
                </mxCell>
            </root>
        </mxGraphModel>
    </diagram>
</mxfile>